<svg width="34" height="34" viewBox="0 0 34 34" fill="none" xmlns="http://www.w3.org/2000/svg">
<path d="M17.8397 5.60046H6.88879C4.18879 5.60046 2 7.78925 2 10.4893V27.1112C2 29.8112 4.18879 32 6.8888 32H23.5107C26.2107 32 28.3995 29.8112 28.3995 27.1112V16.5374" stroke="#A9A9A9" stroke-width="2.79722" stroke-linecap="round"/>
<circle cx="28.469" cy="5.53104" r="2.51242" transform="rotate(45 28.469 5.53104)" fill="white" stroke="#A9A9A9" stroke-width="2.79722"/>
<mask id="path-3-inside-1" fill="white">
<path fill-rule="evenodd" clip-rule="evenodd" d="M31.2344 8.2966L25.7034 2.76556L13.2585 15.2104L13.2586 15.2104L11.8758 22.1242L18.7896 20.7414L18.7896 20.7415L18.7896 20.7414L31.2344 8.2966Z"/>
</mask>
<path fill-rule="evenodd" clip-rule="evenodd" d="M31.2344 8.2966L25.7034 2.76556L13.2585 15.2104L13.2586 15.2104L11.8758 22.1242L18.7896 20.7414L18.7896 20.7415L18.7896 20.7414L31.2344 8.2966Z" fill="white"/>
<path d="M25.7034 2.76556L27.6813 0.787629L25.7034 -1.19031L23.7254 0.787629L25.7034 2.76556ZM31.2344 8.2966L33.2123 10.2745L35.1903 8.2966L33.2123 6.31867L31.2344 8.2966ZM13.2585 15.2104L11.2806 13.2325L9.30266 15.2104L11.2806 17.1883L13.2585 15.2104ZM13.2586 15.2104L16.0015 15.759L16.2951 14.2911L15.2365 13.2325L13.2586 15.2104ZM11.8758 22.1242L9.13291 21.5756L8.31004 25.69L12.4244 24.8671L11.8758 22.1242ZM18.7896 20.7414L19.4156 18.0152L18.8301 17.8807L18.241 17.9985L18.7896 20.7414ZM18.7896 20.7415L18.1636 23.4677L27.6502 25.6461L20.7676 18.7635L18.7896 20.7415ZM18.7896 20.7414L16.8117 18.7635L14.8337 20.7414L16.8117 22.7194L18.7896 20.7414ZM23.7254 4.7435L29.2565 10.2745L33.2123 6.31867L27.6813 0.787629L23.7254 4.7435ZM15.2365 17.1883L27.6813 4.7435L23.7254 0.787629L11.2806 13.2325L15.2365 17.1883ZM15.2365 13.2325L15.2365 13.2325L11.2806 17.1883L11.2806 17.1884L15.2365 13.2325ZM14.6187 22.6728L16.0015 15.759L10.5157 14.6619L9.13291 21.5756L14.6187 22.6728ZM18.241 17.9985L11.3272 19.3813L12.4244 24.8671L19.3382 23.4843L18.241 17.9985ZM19.4156 18.0152L19.4156 18.0152L18.1635 23.4677L18.1636 23.4677L19.4156 18.0152ZM16.8117 22.7194L16.8117 22.7194L20.7676 18.7635L20.7675 18.7635L16.8117 22.7194ZM29.2565 6.31867L16.8117 18.7635L20.7675 22.7194L33.2123 10.2745L29.2565 6.31867Z" fill="#A9A9A9" mask="url(#path-3-inside-1)"/>
</svg>
